<svg xmlns="http://www.w3.org/2000/svg" width="100" height="979.944" viewBox="0 0 100 979.944"><path fill="none" stroke="#7A7A7A" stroke-miterlimit="10" d="M2 913.944l12-12"/><path fill="#7A7A7A" d="M8 904.944c1.654 0 3 1.346 3 3s-1.346 3-3 3-3-1.346-3-3 1.346-3 3-3m0-1a4 4 0 1 0 0 8 4 4 0 0 0 0-8z"/><path fill="none" stroke="#FFF" stroke-miterlimit="10" d="M18 913.944l12-12"/><path fill="#FFF" d="M24 904.944c1.654 0 3 1.346 3 3s-1.346 3-3 3-3-1.346-3-3 1.346-3 3-3m0-1a4 4 0 1 0 .002 8.002 4 4 0 0 0-.002-8.002z"/><path d="M2 919.061h12v4H2zm6 6.233l-3 3.533h6z" fill="#7A7A7A"/><path d="M18 919.061h12v4H18zm6 6.233l-3 3.533h6z" fill="#FFF"/><path d="M2 940.828h12v4H2zm6-2.233l-3-3.533h6z" fill="#7A7A7A"/><path d="M18 940.827h12v4H18zm6-2.233l-3-3.533h6z" fill="#FFF"/><path d="M3.117 949.944h4v12h-4zm6.234 6l3.533-3v6z" fill="#7A7A7A"/><path d="M19.117 949.944h4v12h-4zm6.234 6l3.533-3v6z" fill="#FFF"/><path d="M8.883 965.944h4v12h-4zm-2.233 6l-3.533 3v-6z" fill="#7A7A7A"/><path d="M24.884 965.944h4v12h-4zm-2.234 6l-3.533 3v-6z" fill="#FFF"/><path d="M25.535 873.929l18.229-12.291c-4.068-5.73-10.699-9.52-18.229-9.693v21.984zm-1.077.474v-22.458c-12.265.281-22.175 10.17-22.458 22.458h22.458zm19.909-11.872l-18.832 12.696-.234.252-11.65 19.476a22.894 22.894 0 0 0 11.244 2.989c12.706.057 23.049-10.198 23.105-22.901a22.886 22.886 0 0 0-3.633-12.512zm-20.32 12.949H2c.183 7.964 4.415 14.935 10.726 18.923l11.321-18.923z" fill="#7A7A7A"/><path fill="#FFD440" d="M75.535 874.025l18.229-12.291c-4.068-5.731-10.699-9.52-18.229-9.693v21.984z"/><path fill="#3BAFDA" d="M74.458 874.5v-22.458c-12.265.28-22.174 10.169-22.458 22.458h22.458z"/><path fill="#D79DF8" d="M94.367 862.627l-18.832 12.696-.234.252-11.65 19.476a22.894 22.894 0 0 0 11.244 2.989c12.706.056 23.049-10.198 23.105-22.901a22.886 22.886 0 0 0-3.633-12.512z"/><path fill="#B0E433" d="M74.047 875.576H52c.183 7.964 4.416 14.935 10.726 18.923l11.321-18.923z"/><path d="M25.662 835.759l.527.231H48c0-8.664-4.793-16.207-11.871-20.129l-10.467 19.898zm-.183-22.757v21.048l9.803-18.634a22.889 22.889 0 0 0-9.803-2.414zM3.76 827.159A22.91 22.91 0 0 0 2 835.99h21.811L3.76 827.159zm20.761 8.097v-22.254c-9.028.186-16.777 5.568-20.374 13.281l20.374 8.973z" fill="#7A7A7A"/><path fill="#D79DF8" d="M75.662 835.759l.527.231H98c0-8.664-4.793-16.207-11.871-20.129l-10.467 19.898z"/><path fill="#B0E433" d="M75.479 813.002v21.048l9.803-18.634a22.889 22.889 0 0 0-9.803-2.414z"/><path fill="#FFD440" d="M53.76 827.159A22.91 22.91 0 0 0 52 835.99h21.811l-20.051-8.831z"/><path fill="#3BAFDA" d="M74.521 835.256v-22.254c-9.028.186-16.777 5.568-20.374 13.281l20.374 8.973z"/><path fill="#D79DF8" d="M62.852 769.298c2.14-4.576 6.773-7.761 12.148-7.761 3.295 0 6.313 1.2 8.65 3.179l6.449-7.104a22.9 22.9 0 0 0-15.1-5.66c-9.354 0-17.397 5.588-20.991 13.607l8.844 3.739z"/><path fill="#FFD440" d="M96.365 783.474A22.935 22.935 0 0 0 98 774.957c0-6.579-2.766-12.508-7.191-16.701l-6.449 7.104a13.373 13.373 0 0 1 4.058 9.597c0 1.684-.326 3.291-.895 4.777l8.842 3.74z"/><path fill="#3BAFDA" d="M74.521 788.353c-7.175-.255-12.938-6.158-12.938-13.396 0-1.684.326-3.29.895-4.776l-8.843-3.74A22.935 22.935 0 0 0 52 774.958c0 12.545 10.04 22.738 22.521 22.994v-9.599z"/><path fill="#B0E433" d="M87.148 780.616c-2.074 4.438-6.5 7.553-11.669 7.737v9.598c9.147-.188 16.98-5.714 20.512-13.595l-8.843-3.74z"/><path d="M12.852 769.298c2.141-4.577 6.775-7.762 12.148-7.762 3.297 0 6.313 1.2 8.65 3.179l6.449-7.104a22.9 22.9 0 0 0-15.1-5.66c-9.354 0-17.397 5.588-20.991 13.607l8.844 3.74zm33.513 14.176A22.939 22.939 0 0 0 48 774.957c0-6.579-2.764-12.509-7.191-16.702l-6.447 7.104a13.375 13.375 0 0 1 4.055 9.597c0 1.684-.324 3.29-.893 4.776l8.841 3.742zm-21.844 4.88c-7.176-.256-12.938-6.158-12.938-13.396 0-1.684.324-3.291.895-4.777l-8.844-3.74A22.949 22.949 0 0 0 2 774.957c0 12.544 10.04 22.738 22.521 22.994v-9.597zm12.629-7.738c-2.076 4.438-6.502 7.553-11.672 7.738v9.597c9.15-.187 16.98-5.713 20.514-13.595l-8.842-3.74z" fill="#7A7A7A"/><path fill="#FFD440" d="M63.758 725.461l6.589 13.174h9.306l6.589-13.174z"/><path fill="#D79DF8" d="M95.576 706.793L98 701.945l-46-.001 2.424 4.849z"/><path fill="#B0E433" d="M70.604 739.669h8.791v8.275h-8.791z"/><path fill="#3BAFDA" d="M54.942 707.827l8.3 16.6h23.516l8.301-16.6z"/><path d="M13.703 725.461l6.589 13.174h9.307l6.589-13.174zm31.818-18.668l2.424-4.848-46-.001 2.424 4.849zM20.55 739.669h8.791v8.275H20.55zM4.887 707.827l8.301 16.6h23.515l8.301-16.6zM2 664.744h10.729v33.201H2zm11.768-12.8h10.701v46H13.768zm11.74 17.168h10.733v28.832H25.508zm11.771-9.504H48v38.336H37.279zM2 481.344h10.729v16.601H2zm11.768-29.4h10.701v29.399H13.768zm11.74 0h10.733v8.85H25.508zm11.771 8.85H48v37.15H37.279z" fill="#7A7A7A"/><path fill="#3BAFDA" d="M52 481.344h10.729v16.601H52z"/><path fill="#D79DF8" d="M63.768 451.944h10.701v29.399H63.768z"/><path fill="#B0E433" d="M75.508 451.944h10.733v8.85H75.508z"/><path fill="#FFD440" d="M87.279 460.794H98v37.15H87.279zM52 76.183h10.729V98H52z"/><path fill="#D79DF8" d="M63.768 63.245h10.701v27.153H63.768z"/><path fill="#65C3E6" d="M75.508 67.333h10.733v15.718H75.508z"/><path fill="#B0E433" d="M87.279 52H98v34.885H87.279z"/><path d="M2 76.183h10.729V98H2zm11.768-12.938h10.701v27.153H13.768zm11.74 4.088h10.733v15.718H25.508zM37.279 52H48v34.885H37.279z" fill="#7A7A7A"/><path fill="#3BAFDA" d="M52 664.744h10.729v33.201H52z"/><path fill="#D79DF8" d="M63.768 651.944h10.701v46H63.768z"/><path fill="#FFD440" d="M75.508 669.112h10.733v28.832H75.508z"/><path fill="#B0E433" d="M87.279 659.608H98v38.336H87.279z"/><path d="M2 601.944h33.201v10.729H2zm0 11.768h46v10.701H2zm0 11.739h28.832v10.734H2zm0 11.772h38.338v10.722H2z" fill="#7A7A7A"/><path fill="#3BAFDA" d="M52 601.901h33.201v10.729H52z"/><path fill="#D79DF8" d="M52 613.669h46v10.701H52z"/><path fill="#FFD440" d="M52 625.409h28.832v10.734H52z"/><path fill="#B0E433" d="M52 637.18h38.338v10.722H52z"/><path fill="#D79DF8" d="M88.806 563.992H98v13.823h-9.194zm-12.252-12.048h9.166v19.152h-9.166zm-12.283 16.159h9.2v12.004h-9.2zM52 559.157h9.187v15.961H52z"/><path fill="#3BAFDA" d="M88.806 578.717H98v6.146h-9.194zm-12.252-6.718h9.166v8.518h-9.166zm-12.283 9.01h9.2v5.338h-9.2zM52 576.021h9.187v7.099H52z"/><path fill="#FFD440" d="M88.806 585.766H98v5.138h-9.194zm-12.252-4.347h9.166v7.116h-9.166zm-12.283 5.83h9.2v4.462h-9.2zM52 584.021h9.187v5.931H52z"/><path fill="#B0E433" d="M88.806 591.803H98v6.141h-9.194zm-12.252-2.365h9.166v8.507h-9.166zm-12.283 3.173h9.2v5.333h-9.2zM52 590.855h9.187v7.089H52z"/><path d="M38.806 563.992H48v13.823h-9.194zm-12.252-12.048h9.166v19.152h-9.166zm-12.283 16.159h9.2v12.004h-9.2zM2 559.157h9.187v15.961H2zm36.806 19.56H48v6.146h-9.194zm-12.252-6.718h9.166v8.518h-9.166zm-12.283 9.01h9.2v5.338h-9.2zM2 576.021h9.187v7.099H2zm36.806 9.745H48v5.138h-9.194zm-12.252-4.347h9.166v7.116h-9.166zm-12.283 5.83h9.2v4.462h-9.2zM2 584.021h9.187v5.931H2zm36.806 7.782H48v6.141h-9.194zm-12.252-2.365h9.166v8.507h-9.166zm-12.283 3.173h9.2v5.333h-9.2zM2 590.855h9.187v7.089H2z" fill="#7A7A7A"/><path fill="#D79DF8" d="M72.13 538.749h13.823v9.195H72.13zm6.718-12.25H98v9.166H78.848zm-9.01-12.284h12.004v9.2H69.838zm4.988-12.271h15.962v9.188H74.826z"/><path fill="#3BAFDA" d="M65.081 538.749h6.146v9.195h-6.146zm4.347-12.25h8.518v9.166h-8.518zm-5.83-12.284h5.338v9.2h-5.338zm3.227-12.271h7.099v9.188h-7.099z"/><path fill="#FFD440" d="M59.041 538.749h5.138v9.195h-5.138zm2.369-12.25h7.115v9.166H61.41zm-3.177-12.284h4.462v9.2h-4.462zm1.759-12.271h5.931v9.188h-5.931z"/><path fill="#B0E433" d="M52 538.749h6.141v9.195H52zm0-12.25h8.508v9.166H52zm0-12.284h5.332v9.2H52zm0-12.271h7.09v9.188H52z"/><path d="M22.13 538.749h13.823v9.195H22.13zm6.718-12.25H48v9.166H28.848zm-9.01-12.284h12.004v9.2H19.838zm4.988-12.271h15.962v9.188H24.826zm-9.745 36.805h6.146v9.195h-6.146zm4.347-12.25h8.518v9.166h-8.518zm-5.83-12.284h5.338v9.2h-5.338zm3.227-12.271h7.099v9.188h-7.099zm-7.784 36.805h5.138v9.195H9.041zm2.369-12.25h7.115v9.166H11.41zm-3.177-12.284h4.462v9.2H8.233zm1.759-12.271h5.931v9.188H9.992zM2 538.749h6.142v9.195H2zm0-12.25h8.508v9.166H2zm0-12.284h5.333v9.2H2zm0-12.271h7.09v9.188H2z" fill="#7A7A7A"/><g fill="none" stroke-width="2" stroke-linecap="round" stroke-linejoin="round" stroke-miterlimit="10"><path stroke="#3BAFDA" d="M52.5 447.34l7.553-9.162 7.375 3.28 6.769-16.566 8.741 22.552 14.418-22.917"/><path stroke="#FFD440" d="M52.777 425.285l7.373 10.631 7.603-16.214 7.037 16.284 7.167-22.029 7.707 16.995 7.211-17.222"/><path stroke="#B0E433" d="M52.548 436.677l7.405-23.352 7.317 13.876 7.518-13.471 7.551 6.61 7.056-17.896L97.5 447.34"/></g><g fill="none" stroke="#7A7A7A" stroke-width="2" stroke-linecap="round" stroke-linejoin="round" stroke-miterlimit="10"><path d="M2.572 447.34l7.553-9.162 7.375 3.28 6.77-16.566 8.741 22.552 14.418-22.917"/><path d="M2.848 425.285l7.375 10.631 7.602-16.214 7.037 16.284 7.167-22.029 7.707 16.995 7.211-17.222"/><path d="M2.62 436.677l7.405-23.352 7.317 13.876 7.518-13.471 7.551 6.61 7.056-17.896 8.105 44.896"/></g><ellipse fill="#D79DF8" cx="95.125" cy="354.831" rx="2.875" ry="2.888"/><ellipse fill="#D79DF8" cx="85.541" cy="364.455" rx="2.875" ry="2.887"/><ellipse fill="#3BAFDA" cx="92.25" cy="375.042" rx="2.875" ry="2.887"/><ellipse fill="#3BAFDA" cx="73.084" cy="365.417" rx="2.875" ry="2.888"/><ellipse fill="#FFD440" cx="73.084" cy="384.665" rx="2.875" ry="2.887"/><ellipse fill="#B0E433" cx="54.875" cy="395.057" rx="2.875" ry="2.888"/><ellipse fill="#B0E433" cx="57.75" cy="387.358" rx="2.875" ry="2.888"/><ellipse fill="#FFD440" cx="68.291" cy="393.132" rx="2.875" ry="2.888"/><ellipse fill="#FFD440" cx="58.709" cy="373.884" rx="2.875" ry="2.888"/><ellipse fill="#FFD440" cx="68.291" cy="373.884" rx="2.875" ry="2.888"/><ellipse fill="#D79DF8" cx="77.875" cy="360.411" rx="2.875" ry="2.887"/><ellipse fill="#FFD440" cx="78.834" cy="389.283" rx="2.875" ry="2.887"/><ellipse fill="#3BAFDA" cx="81.709" cy="379.659" rx="2.875" ry="2.887"/><g fill="#7A7A7A"><ellipse cx="45.125" cy="354.831" rx="2.875" ry="2.888"/><ellipse cx="35.541" cy="364.455" rx="2.875" ry="2.887"/><ellipse cx="42.25" cy="375.042" rx="2.875" ry="2.887"/><ellipse cx="23.084" cy="365.417" rx="2.875" ry="2.888"/><ellipse cx="23.084" cy="384.665" rx="2.875" ry="2.887"/><ellipse cx="4.875" cy="395.057" rx="2.875" ry="2.888"/><ellipse cx="7.75" cy="387.358" rx="2.875" ry="2.888"/><ellipse cx="18.291" cy="393.132" rx="2.875" ry="2.888"/><ellipse cx="8.709" cy="373.884" rx="2.875" ry="2.888"/><ellipse cx="18.291" cy="373.884" rx="2.875" ry="2.888"/><ellipse cx="27.875" cy="360.411" rx="2.875" ry="2.887"/><ellipse cx="28.834" cy="389.283" rx="2.875" ry="2.887"/><ellipse cx="31.709" cy="379.659" rx="2.875" ry="2.887"/></g><path fill="#B0E433" d="M66.502 339.123l5.525-8.797 10.92 4.881 4.315-5.861 7.894 12.203 2.721-4.65.123-.205v-5.283l-2.809 4.458-8.558-11.966-5.746 6.812-10.042-4.163-5.878 8.772-7.649-3.767-5.218 7.974-.1.117v6.596l6.27-9.838z"/><path fill="#3BAFDA" d="M95.188 342.864l-7.961-12.305-4.053 5.504-10.881-4.862-5.494 8.747-8.236-2.719-6.161 9.664-.297.468-.105.163v.441h46v-9.911z"/><path fill="#FFD440" d="M64.732 334.438l5.854-8.74 10.098 4.187 5.994-7.105 8.476 11.854 2.737-4.346.109.067v-5.789h-.247l-2.194 5.021-9.83-11.159-6.799 8.557-9.221-13.222-7.246 12.025L52 323.118v15.305l5.074-7.756z"/><path fill="#D79DF8" d="M69.668 312.497l9.297 13.334 6.736-8.477 9.66 10.965 1.942-4.443H98v-18.169l-4.037 9.748-10.471-13.49-7.019 9.783-6.785-6.041-10 8.699L52 303.923v18.482l10.137 2.588z"/><g fill="#7A7A7A"><path d="M16.502 339.123l5.525-8.797 10.92 4.881 4.315-5.861 7.894 12.203 2.721-4.65.123-.205v-5.283l-2.809 4.458-8.558-11.966-5.746 6.812-10.042-4.163-5.878 8.772-7.65-3.767-5.217 7.974-.1.117v6.596l6.271-9.838z"/><path d="M45.188 342.864l-7.961-12.305-4.053 5.504-10.881-4.862-5.494 8.747-8.236-2.719-6.161 9.664-.298.468-.104.163v.441h46v-9.911z"/><path d="M14.732 334.438l5.854-8.74 10.098 4.187 5.994-7.105 8.476 11.854 2.737-4.346.109.067v-5.789h-.247l-2.194 5.021-9.83-11.159-6.799 8.557-9.221-13.222-7.246 12.025L2 323.118v15.305l5.074-7.756z"/><path d="M19.668 312.497l9.297 13.334 6.736-8.477 9.66 10.965 1.942-4.443H48v-18.169l-4.037 9.748-10.471-13.49-7.019 9.783-6.785-6.041-10 8.699L2 303.923v18.482l10.137 2.588z"/></g><path fill="#FFD440" d="M93.931 291.892l-1.082-32.772-15.847 15.845z"/><path fill="#B0E433" d="M58.004 293.963l33.992.001L75 276.969z"/><path fill="#D79DF8" d="M59.64 261.608l-3.385 30.099 16.743-16.742z"/><path fill="#3BAFDA" d="M90.608 257.354l-28.912 2.305L75 272.962z"/><path fill="#7A7A7A" d="M76.335 275.633l-.333-.334-.335-.334.335-.334.333-.333 16.472-16.47L98 252.633l-.667-.668-5.274 5.273-16.392 16.391-.332.335-.335.334-.335-.334-.332-.335-13.872-13.871-7.794-7.793-.667.668 7.775 7.775 13.89 13.89.333.333.335.334-.335.334-.333.334-17.578 17.579L52 297.298l.667.667 4.003-4.002 17.663-17.662.332-.335.335-.333.335.333.332.335 17.663 17.663 4.003 4.001.667-.667-4.024-4.025z"/><g fill="#7A7A7A"><path d="M43.931 291.892l-1.082-32.772-15.847 15.845zm-35.926 2.071l33.991.001L25 276.969zm1.635-32.355l-3.384 30.099 16.742-16.742zm30.968-4.254l-28.912 2.305L25 272.962z"/><path d="M26.335 275.633l-.333-.334-.335-.334.335-.334.333-.333 16.472-16.47L48 252.633l-.667-.668-5.274 5.273-16.392 16.391-.332.335-.335.334-.335-.334-.332-.335-13.872-13.871-7.794-7.793-.667.668 7.775 7.775 13.89 13.89.333.333.335.334-.335.334-.333.334-17.578 17.579L2 297.298l.667.667 4.003-4.002 17.663-17.662.332-.335.335-.333.335.333.332.335 17.663 17.663 4.003 4.001.667-.667-4.024-4.025z"/></g><circle fill="#FFD440" cx="58.708" cy="241.257" r="6.708"/><circle fill="#3BAFDA" cx="62.801" cy="218.326" r="7.729"/><circle fill="#3BAFDA" cx="75.959" cy="218.326" r="7.729"/><circle fill="#D79DF8" cx="87.414" cy="235.483" r="9.43"/><circle fill="#FFD440" cx="92.707" cy="207.258" r="5.293"/><circle fill="#B0E433" cx="92.25" cy="212.31" r="3.127"/><circle fill="#B0E433" cx="69.126" cy="237.573" r="3.128"/><circle fill="#B0E433" cx="71.167" cy="233.289" r="3.128"/><g fill="#7A7A7A"><circle cx="8.708" cy="241.257" r="6.708"/><circle cx="12.801" cy="218.326" r="7.729"/><circle cx="25.959" cy="218.326" r="7.729"/><circle cx="37.414" cy="235.483" r="9.43"/><circle cx="42.707" cy="207.258" r="5.293"/><circle cx="42.25" cy="212.31" r="3.127"/><circle cx="19.126" cy="237.573" r="3.128"/><circle cx="21.167" cy="233.289" r="3.128"/></g><path fill="#65C3E6" d="M52 170.495h10.729v13.642H52z"/><path fill="#D79DF8" d="M63.768 162.261h10.701v8.233H63.768z"/><path fill="#FFD440" d="M75.508 162.261h10.733v21.875H75.508z"/><path fill="#B0E433" d="M87.279 172.797H98v11.339H87.279z"/><path fill="none" stroke="#65C3E6" stroke-miterlimit="10" d="M57.365 190.117v-27.856"/><path fill="none" stroke="#D79DF8" stroke-miterlimit="10" d="M69.118 184.137v-32.172"/><path fill="none" stroke="#FFD440" stroke-miterlimit="10" d="M80.873 151.965v38.152"/><path fill="none" stroke="#B0E433" stroke-miterlimit="10" d="M92.639 151.965v46"/><path fill="#7A7A7A" d="M2 170.529h10.729v13.642H2zm11.768-8.233h10.701v8.233H13.768zm11.74 0h10.733v21.875H25.508zm11.771 10.536H48v11.339H37.279z"/><path fill="none" stroke="#7A7A7A" stroke-miterlimit="10" d="M7.364 190.151v-27.855m11.754 21.875V152m11.755 0v38.151M42.639 152v46"/><g fill="none" stroke-width="2" stroke-miterlimit="10"><path stroke="#65C3E6" d="M57.75 139.854V102M52 135.063h5.75m4.979-25.636H57.75"/><path stroke="#D79DF8" d="M69.118 148v-40.969m-5.35 6.708h5.35m0 3.714h5.351"/><path stroke="#FFD440" d="M80.873 128.594v-25.636m5.368 2.141h-5.367m-5.366 21.099h5.365"/><path stroke="#B0E433" d="M98 104.875h-5.361v32.703m-5.36-8.505h5.36"/></g><path d="M7.75 139.854V102M2 135.063h5.75m4.979-25.636H7.75M19.118 148v-40.969m-5.35 6.708h5.35m0 3.714h5.351m6.404 11.141v-25.636m5.368 2.141h-5.367m-5.366 21.099h5.365M48 104.875h-5.361v32.703m-5.36-8.505h5.36" fill="none" stroke="#7A7A7A" stroke-width="2" stroke-miterlimit="10"/><path fill="#7A7A7A" d="M45 920.061v4.233h-2.133l-.296.317-2.194 2.348-.74-2.011-.241-.654H35v-4.233h10m1-1H34v6.233h4.698L40 928.827l3.302-3.533H46v-6.233z"/><path fill="none" stroke="#7A7A7A" stroke-width=".889" stroke-miterlimit="10" d="M36 922.132h8"/><path fill="#FFF" d="M61 920.061v4.233h-2.133l-.296.317-2.194 2.348-.74-2.011-.241-.654H51v-4.233h10m1-1H50v6.233h4.698L56 928.827l3.302-3.533H62v-6.233z"/><path fill="none" stroke="#FFF" stroke-width=".889" stroke-miterlimit="10" d="M52 922.132h8"/><path fill="#7A7A7A" d="M42.128 938.834a2.203 2.203 0 0 0-1.577-1.576v-3.872h-1.103v3.872c-.771.2-1.376.805-1.576 1.576h-2.42v1.103h2.42a2.2 2.2 0 0 0 1.576 1.577v3.872h1.103v-3.872a2.201 2.201 0 0 0 1.577-1.577h2.42v-1.103h-2.42zm-1.025.552c0 .205-.071.387-.169.551-.095.16-.223.288-.383.383a1.067 1.067 0 0 1-.551.169 1.07 1.07 0 0 1-.552-.169 1.086 1.086 0 0 1-.382-.383 1.067 1.067 0 0 1-.169-.551c0-.206.071-.387.169-.552.095-.159.223-.287.382-.382a1.07 1.07 0 0 1 .552-.169c.205 0 .387.071.551.169.16.095.288.223.383.382.097.165.169.346.169.552zm.99 14.418h2.455v-1.103h-2.455a2.196 2.196 0 0 0-1.541-1.565v-1.191h-1.103v1.17a2.2 2.2 0 0 0-1.611 1.587h-2.386v1.103h2.386a2.201 2.201 0 0 0 1.611 1.587v1.109a2.197 2.197 0 0 0-1.611 1.586h-2.386v1.103h2.386a2.2 2.2 0 0 0 1.611 1.587v1.169h1.103v-1.19a2.194 2.194 0 0 0 1.541-1.565h2.455v-1.103h-2.455a2.194 2.194 0 0 0-1.541-1.565v-1.151a2.203 2.203 0 0 0 1.541-1.568zm-3.061 0a1.07 1.07 0 0 1-.169-.551c0-.206.071-.387.169-.552.103-.171.242-.31.417-.405.155-.085.326-.146.517-.146.22 0 .413.081.586.193.143.093.26.212.348.358.098.165.169.346.169.552 0 .205-.071.386-.169.551a1.092 1.092 0 0 1-.348.358 1.07 1.07 0 0 1-.586.193c-.19 0-.361-.062-.517-.146a1.096 1.096 0 0 1-.417-.405zm2.036 4.833c0 .206-.071.387-.169.552a1.092 1.092 0 0 1-.348.358 1.07 1.07 0 0 1-.586.192c-.19 0-.361-.061-.517-.146a1.086 1.086 0 0 1-.417-.404 1.07 1.07 0 0 1-.169-.552c0-.205.071-.386.169-.551.103-.171.242-.311.417-.405.155-.085.326-.146.517-.146.22 0 .413.081.586.193.143.093.26.212.348.358.098.165.169.346.169.551z"/><path fill="#FFF" d="M58.128 938.834a2.203 2.203 0 0 0-1.577-1.576v-3.872h-1.103v3.872c-.771.2-1.376.805-1.576 1.576h-2.42v1.103h2.42a2.2 2.2 0 0 0 1.576 1.577v3.872h1.103v-3.872a2.201 2.201 0 0 0 1.577-1.577h2.42v-1.103h-2.42zm-1.025.552c0 .205-.071.387-.169.551-.095.16-.223.288-.383.383a1.067 1.067 0 0 1-.551.169 1.07 1.07 0 0 1-.552-.169 1.086 1.086 0 0 1-.382-.383 1.067 1.067 0 0 1-.169-.551c0-.206.071-.387.169-.552.095-.159.223-.287.382-.382a1.07 1.07 0 0 1 .552-.169c.205 0 .387.071.551.169.16.095.288.223.383.382.097.165.169.346.169.552zm.99 14.418h2.455v-1.103h-2.455a2.196 2.196 0 0 0-1.541-1.565v-1.191h-1.103v1.17a2.2 2.2 0 0 0-1.611 1.587h-2.386v1.103h2.386a2.201 2.201 0 0 0 1.611 1.587v1.109a2.197 2.197 0 0 0-1.611 1.586h-2.386v1.103h2.386a2.2 2.2 0 0 0 1.611 1.587v1.169h1.103v-1.19a2.194 2.194 0 0 0 1.541-1.565h2.455v-1.103h-2.455a2.194 2.194 0 0 0-1.541-1.565v-1.151a2.203 2.203 0 0 0 1.541-1.568zm-3.061 0a1.07 1.07 0 0 1-.169-.551c0-.206.071-.387.169-.552.103-.171.242-.31.417-.405.155-.085.326-.146.517-.146.22 0 .413.081.586.193.143.093.26.212.348.358.098.165.169.346.169.552 0 .205-.071.386-.169.551a1.092 1.092 0 0 1-.348.358 1.07 1.07 0 0 1-.586.193c-.19 0-.361-.062-.517-.146a1.096 1.096 0 0 1-.417-.405zm2.036 4.833c0 .206-.071.387-.169.552a1.092 1.092 0 0 1-.348.358 1.07 1.07 0 0 1-.586.192c-.19 0-.361-.061-.517-.146a1.086 1.086 0 0 1-.417-.404 1.07 1.07 0 0 1-.169-.552c0-.205.071-.386.169-.551.103-.171.242-.311.417-.405.155-.085.326-.146.517-.146.22 0 .413.081.586.193.143.093.26.212.348.358.098.165.169.346.169.551z"/><path fill="#7A7A7A" d="M2 2h4.894v4.894H2zm0 5.872h4.894v4.894H2zM7.873 2h4.893v4.894H7.873zm0 5.872h4.893v4.894H7.873zM13.745 2h4.894v4.894h-4.894z"/><path opacity=".75" fill="#7A7A7A" d="M13.745 7.872h4.894v4.894h-4.894z"/><path fill="#7A7A7A" d="M19.617 2h4.894v4.894h-4.894z"/><path opacity=".75" fill="#7A7A7A" d="M19.617 7.872h4.894v4.894h-4.894z"/><path fill="#7A7A7A" d="M25.489 2h4.894v4.894h-4.894z"/><path opacity=".75" fill="#7A7A7A" d="M25.489 7.872h4.894v4.894h-4.894z"/><path fill="#7A7A7A" d="M31.361 2h4.894v4.894h-4.894z"/><path opacity=".75" fill="#7A7A7A" d="M31.361 7.872h4.894v4.894h-4.894z"/><path fill="#7A7A7A" d="M37.234 2h4.894v4.894h-4.894zm0 5.872h4.894v4.894h-4.894zm5.872 0H48v4.894h-4.894zm0-5.872H48v4.894h-4.894zM2 13.745h4.894v4.894H2z"/><path opacity=".75" fill="#7A7A7A" d="M2 19.617h4.894v4.894H2zm5.873-5.872h4.893v4.894H7.873zm0 5.872h4.893v4.894H7.873zm5.872-5.872h4.894v4.894h-4.894z"/><path opacity=".5" fill="#7A7A7A" d="M13.745 19.617h4.894v4.894h-4.894zm5.872-5.872h4.894v4.894h-4.894z"/><path opacity=".25" fill="#7A7A7A" d="M19.617 19.617h4.894v4.894h-4.894z"/><path opacity=".5" fill="#7A7A7A" d="M25.489 13.745h4.894v4.894h-4.894z"/><path opacity=".25" fill="#7A7A7A" d="M25.489 19.617h4.894v4.894h-4.894z"/><path opacity=".75" fill="#7A7A7A" d="M31.361 13.745h4.894v4.894h-4.894z"/><path opacity=".5" fill="#7A7A7A" d="M31.361 19.617h4.894v4.894h-4.894z"/><path opacity=".75" fill="#7A7A7A" d="M37.234 13.745h4.894v4.894h-4.894zm0 5.872h4.894v4.894h-4.894zm5.872 0H48v4.894h-4.894z"/><path fill="#7A7A7A" d="M43.106 13.745H48v4.894h-4.894z"/><path opacity=".75" fill="#7A7A7A" d="M2 25.489h4.894v4.894H2z"/><path fill="#7A7A7A" d="M2 31.362h4.894v4.894H2z"/><path opacity=".75" fill="#7A7A7A" d="M7.873 25.489h4.893v4.894H7.873zm0 5.873h4.893v4.894H7.873z"/><path opacity=".5" fill="#7A7A7A" d="M13.745 25.489h4.894v4.894h-4.894z"/><path opacity=".75" fill="#7A7A7A" d="M13.745 31.362h4.894v4.894h-4.894z"/><path opacity=".25" fill="#7A7A7A" d="M19.617 25.489h4.894v4.894h-4.894z"/><path opacity=".5" fill="#7A7A7A" d="M19.617 31.362h4.894v4.894h-4.894z"/><path opacity=".25" fill="#7A7A7A" d="M25.489 25.489h4.894v4.894h-4.894z"/><path opacity=".5" fill="#7A7A7A" d="M25.489 31.362h4.894v4.894h-4.894zm5.872-5.873h4.894v4.894h-4.894z"/><path opacity=".75" fill="#7A7A7A" d="M31.361 31.362h4.894v4.894h-4.894zm5.873-5.873h4.894v4.894h-4.894zm0 5.873h4.894v4.894h-4.894z"/><path fill="#7A7A7A" d="M43.106 31.362H48v4.894h-4.894z"/><path opacity=".75" fill="#7A7A7A" d="M43.106 25.489H48v4.894h-4.894z"/><path fill="#7A7A7A" d="M2 37.234h4.894v4.894H2zm0 5.872h4.894V48H2zm5.873-5.872h4.893v4.894H7.873zm0 5.872h4.893V48H7.873z"/><path opacity=".75" fill="#7A7A7A" d="M13.745 37.234h4.894v4.894h-4.894z"/><path fill="#7A7A7A" d="M13.745 43.106h4.894V48h-4.894z"/><path opacity=".75" fill="#7A7A7A" d="M19.617 37.234h4.894v4.894h-4.894z"/><path fill="#7A7A7A" d="M19.617 43.106h4.894V48h-4.894z"/><path opacity=".75" fill="#7A7A7A" d="M25.489 37.234h4.894v4.894h-4.894z"/><path fill="#7A7A7A" d="M25.489 43.106h4.894V48h-4.894z"/><path opacity=".75" fill="#7A7A7A" d="M31.361 37.234h4.894v4.894h-4.894z"/><path fill="#7A7A7A" d="M31.361 43.106h4.894V48h-4.894zm5.873-5.872h4.894v4.894h-4.894zm0 5.872h4.894V48h-4.894zm5.872 0H48V48h-4.894zm0-5.872H48v4.894h-4.894z"/><path fill="#D79DF8" d="M52 2h4.894v4.894H52zm0 5.872h4.894v4.894H52zM57.873 2h4.893v4.894h-4.893zm0 5.872h4.893v4.894h-4.893zM63.745 2h4.894v4.894h-4.894z"/><path fill="#FFD440" d="M63.745 7.872h4.894v4.894h-4.894z"/><path fill="#D79DF8" d="M69.617 2h4.894v4.894h-4.894z"/><path fill="#FFD440" d="M69.617 7.872h4.894v4.894h-4.894z"/><path fill="#D79DF8" d="M75.489 2h4.894v4.894h-4.894z"/><path fill="#FFD440" d="M75.489 7.872h4.894v4.894h-4.894z"/><path fill="#D79DF8" d="M81.361 2h4.894v4.894h-4.894z"/><path fill="#FFD440" d="M81.361 7.872h4.894v4.894h-4.894z"/><path fill="#D79DF8" d="M87.234 2h4.894v4.894h-4.894zm0 5.872h4.894v4.894h-4.894zm5.872 0H98v4.894h-4.894zm0-5.872H98v4.894h-4.894zM52 13.745h4.894v4.894H52z"/><path fill="#FFD440" d="M52 19.617h4.894v4.894H52zm5.873-5.872h4.893v4.894h-4.893zm0 5.872h4.893v4.894h-4.893zm5.872-5.872h4.894v4.894h-4.894z"/><path fill="#3BAFDA" d="M63.745 19.617h4.894v4.894h-4.894zm5.872-5.872h4.894v4.894h-4.894z"/><path fill="#B0E433" d="M69.617 19.617h4.894v4.894h-4.894z"/><path fill="#3BAFDA" d="M75.489 13.745h4.894v4.894h-4.894z"/><path fill="#B0E433" d="M75.489 19.617h4.894v4.894h-4.894z"/><path fill="#FFD440" d="M81.361 13.745h4.894v4.894h-4.894z"/><path fill="#3BAFDA" d="M81.361 19.617h4.894v4.894h-4.894z"/><path fill="#FFD440" d="M87.234 13.745h4.894v4.894h-4.894zm0 5.872h4.894v4.894h-4.894zm5.872 0H98v4.894h-4.894z"/><path fill="#D79DF8" d="M93.106 13.745H98v4.894h-4.894z"/><path fill="#FFD440" d="M52 25.489h4.894v4.894H52z"/><path fill="#D79DF8" d="M52 31.362h4.894v4.894H52z"/><path fill="#FFD440" d="M57.873 25.489h4.893v4.894h-4.893zm0 5.873h4.893v4.894h-4.893z"/><path fill="#3BAFDA" d="M63.745 25.489h4.894v4.894h-4.894z"/><path fill="#FFD440" d="M63.745 31.362h4.894v4.894h-4.894z"/><path fill="#B0E433" d="M69.617 25.489h4.894v4.894h-4.894z"/><path fill="#3BAFDA" d="M69.617 31.362h4.894v4.894h-4.894z"/><path fill="#B0E433" d="M75.489 25.489h4.894v4.894h-4.894z"/><path fill="#3BAFDA" d="M75.489 31.362h4.894v4.894h-4.894zm5.872-5.873h4.894v4.894h-4.894z"/><path fill="#FFD440" d="M81.361 31.362h4.894v4.894h-4.894zm5.873-5.873h4.894v4.894h-4.894zm0 5.873h4.894v4.894h-4.894z"/><path fill="#D79DF8" d="M93.106 31.362H98v4.894h-4.894z"/><path fill="#FFD440" d="M93.106 25.489H98v4.894h-4.894z"/><path fill="#D79DF8" d="M52 37.234h4.894v4.894H52zm0 5.872h4.894V48H52zm5.873-5.872h4.893v4.894h-4.893zm0 5.872h4.893V48h-4.893z"/><path fill="#FFD440" d="M63.745 37.234h4.894v4.894h-4.894z"/><path fill="#D79DF8" d="M63.745 43.106h4.894V48h-4.894z"/><path fill="#FFD440" d="M69.617 37.234h4.894v4.894h-4.894z"/><path fill="#D79DF8" d="M69.617 43.106h4.894V48h-4.894z"/><path fill="#FFD440" d="M75.489 37.234h4.894v4.894h-4.894z"/><path fill="#D79DF8" d="M75.489 43.106h4.894V48h-4.894z"/><path fill="#FFD440" d="M81.361 37.234h4.894v4.894h-4.894z"/><path fill="#D79DF8" d="M81.361 43.106h4.894V48h-4.894zm5.873-5.872h4.894v4.894h-4.894zm0 5.872h4.894V48h-4.894zm5.872 0H98V48h-4.894zm0-5.872H98v4.894h-4.894z"/></svg>